<?xml version="1.0" standalone="no"?><!DOCTYPE svg PUBLIC "-//W3C//DTD SVG 1.1//EN" "http://www.w3.org/Graphics/SVG/1.1/DTD/svg11.dtd"><svg t="1744551956346" class="icon" viewBox="0 0 1094 1024" version="1.1" xmlns="http://www.w3.org/2000/svg" p-id="1502" width="51.28125" height="48" xmlns:xlink="http://www.w3.org/1999/xlink"><path d="M884.411527 496.844742C874.776618 496.844742 866.956982 504.664378 866.956982 514.299287L866.956982 899.486196C866.956982 941.819287 832.513345 976.262924 790.180254 976.262924L654.570072 976.262924 654.570072 708.952378C654.570072 699.317469 646.750436 691.497833 637.115527 691.497833L446.465345 691.497833C436.830436 691.497833 429.0108 699.317469 429.0108 708.952378L429.0108 976.262924 293.354072 976.262924C251.044254 976.262924 216.623891 941.819287 216.623891 899.486196L216.623891 514.299287C216.623891 504.664378 208.804254 496.844742 199.169345 496.844742 189.534436 496.844742 181.7148 504.664378 181.7148 514.299287L181.7148 899.486196C181.7148 961.065833 231.797709 1011.172015 293.354072 1011.172015L790.180254 1011.172015C851.759891 1011.172015 901.866072 961.065833 901.866072 899.486196L901.866072 514.299287C901.866072 504.664378 894.046436 496.844742 884.411527 496.844742L884.411527 496.844742ZM463.919891 726.406924 619.660982 726.406924 619.660982 976.239651 463.919891 976.239651 463.919891 726.406924ZM1056.885709 367.657833 930.724254 276.684742C914.223891 264.72256 899.724982 236.469469 899.724982 216.222196L899.724982 66.625105C899.724982 31.041105 870.773709 2.089833 835.212982 2.089833L790.924982 2.089833C755.387527 2.089833 726.4828 31.041105 726.4828 66.625105L726.4828 116.335651C726.4828 122.712378 724.993345 125.598196 724.830436 125.830924 724.295163 125.830924 721.292982 125.644742 715.893709 121.734924L585.4268 27.596742C569.601345 16.123287 556.824618 6.860742 554.078436 4.742924 550.703891 1.833833 546.072618-0.121076 541.767163 0.01856 537.694436-0.214167 532.9468 1.764015 529.572254 4.696378 526.570072 7.023651 510.767891 18.473833 492.149709 31.972015L26.741709 367.657833C12.778072 377.758196 3.585345 392.699287 0.839163 409.781469-1.907018 426.840378 2.142436 443.899287 12.172982 457.723287L29.883527 482.392378C41.799163 498.96256 60.812982 508.457833 82.037709 508.457833L82.060982 508.457833C84.295163 508.457833 86.552618 508.341469 88.810072 508.132015 91.882072 507.829469 94.814436 506.735651 97.327891 504.920378L541.790436 184.245469 986.3228 504.920378C988.836254 506.735651 991.768618 507.829469 994.840618 508.132015 997.098072 508.341469 999.355527 508.457833 1001.612982 508.457833 1022.907527 508.457833 1041.898072 498.939287 1053.627527 482.415651L1071.431163 457.74656C1092.260254 428.865105 1085.720618 388.463651 1056.885709 367.657833L1056.885709 367.657833ZM1043.131527 437.313105 1025.258072 462.09856C1020.231163 469.126924 1011.969345 473.292742 1002.497345 473.548742L552.1468 148.661469 552.123527 148.684742C546.282072 144.425833 537.205709 144.262924 531.1548 148.894196L81.153345 473.548742C71.658072 473.292742 63.349709 469.126924 58.229709 462.005469L40.495891 437.289833C35.887891 430.959651 34.049345 423.163287 35.306072 415.320378 36.5628 407.454196 40.775163 400.588742 47.175163 395.980742L512.629709 60.271651C526.337345 50.310924 535.5068 43.654924 541.767163 39.000378 547.073345 42.910196 554.497345 48.262924 564.923527 55.849833L695.483527 150.081105C705.327891 157.132742 715.195527 160.740015 724.830436 160.740015 743.029709 160.740015 761.391891 147.009105 761.391891 116.335651L761.391891 66.625105C761.391891 50.287651 774.634072 36.998924 790.924982 36.998924L835.212982 36.998924C851.527163 36.998924 864.815891 50.287651 864.815891 66.625105L864.815891 216.222196C864.815891 247.547287 884.783891 286.529105 910.2908 304.984378L1036.475527 395.980742C1049.694436 405.52256 1052.673345 424.070924 1043.131527 437.313105L1043.131527 437.313105Z" fill="#d81e06" p-id="1503"></path></svg>